<svg id="Layer_2" data-name="Layer 2" xmlns="http://www.w3.org/2000/svg" viewBox="0 0 60.35 57.96">
  <g id="Layer_1-2" data-name="Layer 1">
    <g>
      <path d="m53.49,2.2c-.32-.02-.63.16-.94.46h1.73c-.4-.45-.79-.46-.79-.46Z" style="fill: #ec297b;"/>
      <path d="m5.8,55.22c-.42.03-.79.13-1.13.27h4.28c-1.14-.21-2.17-.34-3.14-.27Z" style="fill: #ec297b;"/>
      <path d="m54.09,19.68s-.79-1.2-1.67-1.2h0c-.87,0-2.04.77-3.4.39-1.21-.35-2.6-1.01-4.7-.65-.59.1-1.19,0-1.72-.25-.44-.21-1.74-.51-2.21-.88,0,0-1.94.91-2.46,2.59-.04.12-.07.25-.1.37h16.44c-.06-.12-.12-.25-.19-.37Z" style="fill: #ec297b;"/>
      <path d="m21.12,46.67h23.8c1.53-1.69,2.81-3.48,3.89-5.29h-18.56c-1.66,1.56-5.33,3.61-9.13,5.29Z" style="fill: #ec297b;"/>
      <path d="m4.36,54.59c-.13.29-.22.59-.26.91h3.67c.35-.15.72-.24,1.13-.27.97-.07,2.01.06,3.14.27h21.3c.15-.04.29-.07.44-.11,3.54-.97,6.56-2.44,9.13-4.22H8.38c-1.81.76-3.29,1.84-4.01,3.42Z" style="fill: #ec297b;"/>
      <path d="m.66,57.83c.11.11.26.15.41.12.15-.03.27-.13.33-.27.29-.48.59-.88.9-1.22H0c.1.51.32.98.66,1.38Z" style="fill: #ec297b;"/>
      <path d="m52.88,31.77c1.13-4.12,1.69-6.71,1.83-8.51h-17.3c-.1,1.32-.2,2.98-.37,5.21-.21,2.69-1.28,5.39-2.71,7.78h17.03c.64-1.57,1.14-3.08,1.53-4.48Z" style="fill: #ec297b;"/>
      <path d="m24.83,56.46h-12.15c3.1.54,6.97.87,12.15,0Z" style="fill: #ec297b;"/>
      <path d="m53.49,2.2s.39,0,.79.46h2.35c.12-.33.13-.66-.04-.94h0c-.68-1.07-1.81-2.24-4.65-1.46-.91.25-1.67,1.19-2.31,2.4h2.92c.31-.3.62-.48.94-.46Z" style="fill: #ec297b;"/>
      <path d="m48.46,5.38c-.73,2-1.31,4.02-1.84,4.88h2.93c.14-.98.68-3.07,1.42-4.88h-2.51Z" style="fill: #ec297b;"/>
      <path d="m43.02,12.89c-.68.48-1.94,2.62-1.94,2.62.97.59,2.07.96,3.2,1.07,1.73-.07,3.46.11,5.14.55,2.52.6,3.02-.28,3.02-.28,0,0-.5-1.72-.89-2.59-.36-.8-1.85-1.95-2.01-3.34h-3.4c-1.12,1.31-2.53,1.56-3.12,1.98Z" style="fill: #ec297b;"/>
      <path d="m47.54,10.27c-.15.24-.3.45-.47.64h3.4c-.01-.12-.03-.25-.03-.38,0-.07.02-.17.03-.27h-2.93s0,0,0,0Z" style="fill: #ec297b;"/>
      <path d="m53.24,20.05h-16.44c-.21.84-.32,1.83-.43,3.21h17.3c.11-1.47-.05-2.41-.43-3.21Z" style="fill: #ec297b;"/>
      <path d="m36.4,36.25c-1.18,1.98-2.61,3.73-4.01,5.08-.02.02-.04.04-.06.05h18.56c1.03-1.72,1.87-3.45,2.55-5.13h-17.03Z" style="fill: #ec297b;"/>
      <path d="m11.83,49.67c-2.19.24-4.57.67-6.56,1.5h34.54c1.95-1.34,3.64-2.87,5.11-4.49h-23.8c-3.46,1.53-7.03,2.75-9.29,2.99Z" style="fill: #ec297b;"/>
      <path d="m4.66,55.49H1c-.03.26-.04.52,0,.78,0,.06.03.12.04.18h2.31c.4-.44.83-.76,1.32-.96Z" style="fill: #ec297b;"/>
      <path d="m13.71,56.46h12.15c1.36-.23,2.82-.55,4.37-.96H8.94c1.39.26,2.95.64,4.77.96Z" style="fill: #ec297b;"/>
      <path d="m54.75,3.46c.36.93,1.55.12,1.88-.8h-2.35c.16.18.33.44.47.8Z" style="fill: #ec297b;"/>
      <path d="m51.52,2.66h-2.92c-.44.82-.83,1.77-1.18,2.73h2.51c.47-1.14,1.01-2.16,1.59-2.73Z" style="fill: #ec297b;"/>
      <path d="m57.12,2.2c-.32-.02-.63.16-.94.46h1.73c-.4-.45-.79-.46-.79-.46Z" style="fill: #00adee;"/>
      <path d="m9.42,55.22c-.42.03-.79.13-1.13.27h4.28c-1.14-.21-2.17-.34-3.14-.27Z" style="fill: #00adee;"/>
      <path d="m57.71,19.68s-.79-1.2-1.67-1.2h0c-.87,0-2.04.77-3.4.39-1.21-.35-2.6-1.01-4.7-.65-.59.1-1.19,0-1.72-.25-.44-.21-1.74-.51-2.21-.88,0,0-1.94.91-2.46,2.59-.04.12-.07.25-.1.37h16.44c-.06-.12-.12-.25-.19-.37Z" style="fill: #00adee;"/>
      <path d="m24.74,46.67h23.8c1.53-1.69,2.81-3.48,3.89-5.29h-18.56c-1.66,1.56-5.33,3.61-9.13,5.29Z" style="fill: #00adee;"/>
      <path d="m7.99,54.59c-.13.29-.22.59-.26.91h3.67c.35-.15.72-.24,1.13-.27.97-.07,2.01.06,3.14.27h21.3c.15-.04.29-.07.44-.11,3.54-.97,6.56-2.44,9.13-4.22H12c-1.81.76-3.29,1.84-4.01,3.42Z" style="fill: #00adee;"/>
      <path d="m4.28,57.83c.11.11.26.15.41.12.15-.03.27-.13.33-.27.29-.48.59-.88.9-1.22h-2.31c.1.51.32.98.66,1.38Z" style="fill: #00adee;"/>
      <path d="m56.5,31.77c1.13-4.12,1.69-6.71,1.83-8.51h-17.3c-.1,1.32-.2,2.98-.37,5.21-.21,2.69-1.28,5.39-2.71,7.78h17.03c.64-1.57,1.14-3.08,1.53-4.48Z" style="fill: #00adee;"/>
      <path d="m28.45,56.46h-12.15c3.1.54,6.97.87,12.15,0Z" style="fill: #00adee;"/>
      <path d="m57.12,2.2s.39,0,.79.46h2.35c.12-.33.13-.66-.04-.94h0c-.68-1.07-1.81-2.24-4.65-1.46-.91.25-1.67,1.19-2.31,2.4h2.92c.31-.3.62-.48.94-.46Z" style="fill: #00adee;"/>
      <path d="m52.08,5.38c-.73,2-1.31,4.02-1.84,4.88h2.93c.14-.98.68-3.07,1.42-4.88h-2.51Z" style="fill: #00adee;"/>
      <path d="m46.65,12.89c-.68.48-1.94,2.62-1.94,2.62.97.59,2.07.96,3.2,1.07,1.73-.07,3.46.11,5.14.55,2.52.6,3.02-.28,3.02-.28,0,0-.5-1.72-.89-2.59-.36-.8-1.85-1.95-2.01-3.34h-3.4c-1.12,1.31-2.53,1.56-3.12,1.98Z" style="fill: #00adee;"/>
      <path d="m51.17,10.27c-.15.24-.3.45-.47.64h3.4c-.01-.12-.03-.25-.03-.38,0-.07.02-.17.03-.27h-2.93s0,0,0,0Z" style="fill: #00adee;"/>
      <path d="m56.87,20.05h-16.44c-.21.84-.32,1.83-.43,3.21h17.3c.11-1.47-.05-2.41-.43-3.21Z" style="fill: #00adee;"/>
      <path d="m40.02,36.25c-1.18,1.98-2.61,3.73-4.01,5.08-.02.02-.04.04-.06.05h18.56c1.03-1.72,1.87-3.45,2.55-5.13h-17.03Z" style="fill: #00adee;"/>
      <path d="m15.45,49.67c-2.19.24-4.57.67-6.56,1.5h34.54c1.95-1.34,3.64-2.87,5.11-4.49h-23.8c-3.46,1.53-7.03,2.75-9.29,2.99Z" style="fill: #00adee;"/>
      <path d="m8.29,55.49h-3.67c-.03.26-.04.52,0,.78,0,.06.03.12.04.18h2.31c.4-.44.83-.76,1.32-.96Z" style="fill: #00adee;"/>
      <path d="m17.34,56.46h12.15c1.36-.23,2.82-.55,4.37-.96H12.56c1.39.26,2.95.64,4.77.96Z" style="fill: #00adee;"/>
      <path d="m58.38,3.46c.36.93,1.55.12,1.88-.8h-2.35c.16.18.33.44.47.8Z" style="fill: #00adee;"/>
      <path d="m55.14,2.66h-2.92c-.44.82-.83,1.77-1.18,2.73h2.51c.47-1.14,1.01-2.16,1.59-2.73Z" style="fill: #00adee;"/>
      <path d="m55.36,2.2c-.32-.02-.63.16-.94.46h1.73c-.4-.45-.79-.46-.79-.46Z" style="fill: none;"/>
      <path d="m7.66,55.22c-.42.03-.79.13-1.13.27h4.28c-1.14-.21-2.17-.34-3.14-.27Z" style="fill: none;"/>
      <path d="m55.95,19.68s-.79-1.2-1.67-1.2h0c-.87,0-2.04.77-3.4.39-1.21-.35-2.6-1.01-4.7-.65-.59.1-1.19,0-1.72-.25-.44-.21-1.74-.51-2.21-.88,0,0-1.94.91-2.46,2.59-.04.12-.07.25-.1.37h16.44c-.06-.12-.12-.25-.19-.37Z" style="fill: #fff;"/>
      <path d="m22.98,46.67h23.8c1.53-1.69,2.81-3.48,3.89-5.29h-18.56c-1.66,1.56-5.33,3.61-9.13,5.29Z" style="fill: #fff;"/>
      <path d="m6.23,54.59c-.13.29-.22.59-.26.91h3.67c.35-.15.72-.24,1.13-.27.97-.07,2.01.06,3.14.27h21.3c.15-.04.29-.07.44-.11,3.54-.97,6.56-2.44,9.13-4.22H10.24c-1.81.76-3.29,1.84-4.01,3.42Z" style="fill: #fff;"/>
      <path d="m2.52,57.83c.11.11.26.15.41.12.15-.03.27-.13.33-.27.29-.48.59-.88.9-1.22H1.86c.1.51.32.98.66,1.38Z" style="fill: #fff;"/>
      <path d="m54.74,31.77c1.13-4.12,1.69-6.71,1.83-8.51h-17.3c-.1,1.32-.2,2.98-.37,5.21-.21,2.69-1.28,5.39-2.71,7.78h17.03c.64-1.57,1.14-3.08,1.53-4.48Z" style="fill: #fff;"/>
      <path d="m26.69,56.46h-12.15c3.1.54,6.97.87,12.15,0Z" style="fill: #fff;"/>
      <path d="m55.36,2.2s.39,0,.79.46h2.35c.12-.33.13-.66-.04-.94h0c-.68-1.07-1.81-2.24-4.65-1.46-.91.25-1.67,1.19-2.31,2.4h2.92c.31-.3.62-.48.94-.46Z" style="fill: #fff;"/>
      <path d="m50.32,5.38c-.73,2-1.31,4.02-1.84,4.88h2.93c.14-.98.68-3.07,1.42-4.88h-2.51Z" style="fill: #fff;"/>
      <path d="m44.89,12.89c-.68.48-1.94,2.62-1.94,2.62.97.59,2.07.96,3.2,1.07,1.73-.07,3.46.11,5.14.55,2.52.6,3.02-.28,3.02-.28,0,0-.5-1.72-.89-2.59-.36-.8-1.85-1.95-2.01-3.34h-3.4c-1.12,1.31-2.53,1.56-3.12,1.98Z" style="fill: #fff;"/>
      <path d="m49.41,10.27c-.15.24-.3.45-.47.64h3.4c-.01-.12-.03-.25-.03-.38,0-.07.02-.17.03-.27h-2.93s0,0,0,0Z" style="fill: #fff;"/>
      <path d="m55.11,20.05h-16.44c-.21.84-.32,1.83-.43,3.21h17.3c.11-1.47-.05-2.41-.43-3.21Z" style="fill: #fff;"/>
      <path d="m38.26,36.25c-1.18,1.98-2.61,3.73-4.01,5.08-.02.02-.04.04-.06.05h18.56c1.03-1.72,1.87-3.45,2.55-5.13h-17.03Z" style="fill: #fff;"/>
      <path d="m13.69,49.67c-2.19.24-4.57.67-6.56,1.5h34.54c1.95-1.34,3.64-2.87,5.11-4.49h-23.8c-3.46,1.53-7.03,2.75-9.29,2.99Z" style="fill: #fff;"/>
      <path d="m6.53,55.49h-3.67c-.03.26-.04.52,0,.78,0,.06.03.12.04.18h2.31c.4-.44.83-.76,1.32-.96Z" style="fill: #fff;"/>
      <path d="m15.58,56.46h12.15c1.36-.23,2.82-.55,4.37-.96H10.8c1.39.26,2.95.64,4.77.96Z" style="fill: #fff;"/>
      <path d="m56.62,3.46c.36.93,1.55.12,1.88-.8h-2.35c.16.18.33.44.47.8Z" style="fill: #fff;"/>
      <path d="m53.38,2.66h-2.92c-.44.82-.83,1.77-1.18,2.73h2.51c.47-1.14,1.01-2.16,1.59-2.73Z" style="fill: #fff;"/>
    </g>
  </g>
</svg>